<svg xmlns="http://www.w3.org/2000/svg" xmlns:xlink="http://www.w3.org/1999/xlink" width="40" height="40" viewBox="0 0 40 40"><defs><style>.a,.c{fill:#fff;}.a{stroke:#707070;}.b{clip-path:url(#a);}</style><clipPath id="a"><rect class="a" width="40" height="40"/></clipPath></defs><g class="b"><path class="c" d="M13.379,32.853c0,.165-.185.3-.419.3-.266.025-.452-.108-.452-.3,0-.165.185-.3.419-.3C13.169,32.531,13.379,32.663,13.379,32.853Zm-2.508-.372c-.056.165.1.356.347.405a.374.374,0,0,0,.5-.165c.048-.165-.1-.356-.347-.43a.41.41,0,0,0-.5.19Zm3.565-.141c-.234.058-.4.215-.371.405.024.165.234.273.476.215s.4-.215.371-.38S14.669,32.315,14.435,32.34ZM19.742.645C8.556.645,0,9.355,0,20.827A20.706,20.706,0,0,0,13.669,40.611c1.032.19,1.4-.463,1.4-1,0-.513-.024-3.342-.024-5.079,0,0-5.645,1.241-6.831-2.465,0,0-.919-2.407-2.242-3.027,0,0-1.847-1.3.129-1.274A4.24,4.24,0,0,1,9.21,29.9c1.766,3.193,4.726,2.275,5.879,1.729a4.643,4.643,0,0,1,1.29-2.787c-4.508-.513-9.056-1.183-9.056-9.14a6.351,6.351,0,0,1,1.9-4.872,8,8,0,0,1,.21-5.616C11.121,8.676,15,11.447,15,11.447a18.593,18.593,0,0,1,10.129,0s3.879-2.779,5.565-2.233a8,8,0,0,1,.21,5.616A6.5,6.5,0,0,1,32.984,19.7c0,7.982-4.75,8.619-9.258,9.14A4.959,4.959,0,0,1,25.1,32.679c0,2.787-.024,6.236-.024,6.915,0,.538.371,1.191,1.4,1C34.532,37.849,40,30,40,20.827A20.016,20.016,0,0,0,19.742.645ZM7.839,29.172c-.1.083-.081.273.056.43.129.132.315.19.419.083.1-.083.081-.273-.056-.43C8.129,29.123,7.944,29.065,7.839,29.172Zm-.871-.67c-.056.108.024.24.185.323a.236.236,0,0,0,.347-.058c.056-.108-.024-.24-.185-.323C7.153,28.395,7.024,28.42,6.968,28.5Zm2.613,2.945c-.129.108-.081.356.1.513.185.19.419.215.524.083.1-.108.056-.356-.1-.513C9.927,31.339,9.685,31.315,9.581,31.447Zm-.919-1.216c-.129.083-.129.3,0,.488s.347.273.452.19a.384.384,0,0,0,0-.513c-.113-.19-.323-.273-.452-.165Z" transform="translate(0 0.354)"/></g></svg>