<svg xmlns="http://www.w3.org/2000/svg" xmlns:xlink="http://www.w3.org/1999/xlink" width="40" height="40" viewBox="0 0 40 40"><defs><style>.a,.c{fill:#fff;}.a{stroke:#707070;}.b{clip-path:url(#a);}.d{opacity:0.9;}</style><clipPath id="a"><rect class="a" width="40" height="40"/></clipPath></defs><g class="b"><g transform="translate(1.38)"><path class="c" d="M28.19,33.68H23.25l-2.34,5.84H16.55l11.64-26.1v.02h0V9h0L9.57,15.64l2.84,24.62L28.19,49h0Z" transform="translate(-9.57 -9)"/><path class="c" d="M32.4,36.53h3.4V28.35Z" transform="translate(-17.18 -15.45)"/><g class="d" transform="translate(18.62)"><path class="c" d="M37.5,33.68h4.94l2.34,5.84h4.36L37.5,13.42v.02h0V9h0l18.62,6.64L53.28,40.26,37.5,49h0Z" transform="translate(-37.5 -9)"/><path class="c" d="M40.9,36.53H37.5V28.35Z" transform="translate(-37.5 -15.45)"/></g></g></g></svg>